<?xml version="1.0" encoding="UTF-8" standalone="no"?>
<!DOCTYPE svg PUBLIC "-//W3C//DTD SVG 1.1//EN" "http://www.w3.org/Graphics/SVG/1.1/DTD/svg11.dtd">
<svg width="456" height="456" viewBox="0 0 456 456" version="1.1" xmlns="http://www.w3.org/2000/svg" style="shape-rendering:geometricPrecision; text-rendering:geometricPrecision; image-rendering:optimizeQuality; fill-rule:evenodd; clip-rule:evenodd">
	<defs>
		<linearGradient id="id0" gradientUnits="userSpaceOnUse" x1="47.9991" y1="228" x2="408.001" y2="228">
			<stop offset="0" style="stop-opacity:1; stop-color:#AD8DB8"/>
			<stop offset="1" style="stop-opacity:1; stop-color:#B8469A"/>
		</linearGradient>
	</defs>
	<g id="Capa_x0020_1">
		<metadata id="CorelCorpID_0Corel-Layer"/>
		<path fill="url(#id0)" d="M228 48c99,0 180,81 180,180 0,99 -81,180 -180,180 -99,0 -180,-81 -180,-180 0,-99 81,-180 180,-180zm0 41c77,0 139,62 139,139 0,77 -62,139 -139,139 -77,0 -139,-62 -139,-139 0,-77 62,-139 139,-139z"/>
		<g>
			<path stroke="white" stroke-width="7.99965" fill="none" fill-rule="nonzero" d="M75 326c-13,0 -24,-3 -33,-8 -9,-4 -16,-11 -21,-21 -4,-9 -7,-20 -7,-33l0 -16c0,-14 2,-25 7,-35 5,-10 11,-17 20,-22 9,-5 19,-8 31,-8 12,0 22,3 30,9 8,6 14,14 19,25 4,11 6,24 6,39l0 9 -42 0 -45 0c0,11 3,20 9,26 6,6 15,9 26,9 5,0 11,-1 16,-4 6,-2 10,-5 15,-9l0 0 17 18 0 0c-6,7 -14,12 -23,15 -8,4 -17,6 -25,6zm26 -83c-1,-11 -3,-19 -8,-26 -5,-6 -12,-9 -21,-9 -10,0 -18,3 -24,10 -5,6 -7,14 -8,25l61 0z"/>
			<path id="1" fill="black" fill-rule="nonzero" d="M75 326c-13,0 -24,-3 -33,-8 -9,-4 -16,-11 -21,-21 -4,-9 -7,-20 -7,-33l0 -16c0,-14 2,-25 7,-35 5,-10 11,-17 20,-22 9,-5 19,-8 31,-8 12,0 22,3 30,9 8,6 14,14 19,25 4,11 6,24 6,39l0 9 -42 0 -45 0c0,11 3,20 9,26 6,6 15,9 26,9 5,0 11,-1 16,-4 6,-2 10,-5 15,-9l0 0 17 18 0 0c-6,7 -14,12 -23,15 -8,4 -17,6 -25,6zm26 -83c-1,-11 -3,-19 -8,-26 -5,-6 -12,-9 -21,-9 -10,0 -18,3 -24,10 -5,6 -7,14 -8,25l61 0z"/>
		</g>
		<path fill="black" fill-rule="nonzero" d="M136 130l27 0 0 27 -27 0 0 -27zm0 55l27 0 0 139 -27 0 0 -139z"/>
		<path fill="#BD3E99" fill-rule="nonzero" d="M176 130l27 0 0 27 -27 0 0 -27zm0 55l27 0 0 139 -27 0 0 -139z"/>
		<path fill="#BD3E99" fill-rule="nonzero" d="M216 130l27 0 0 74c4,-6 9,-11 14,-14 7,-4 14,-7 22,-7 10,0 18,3 25,7 7,4 13,11 16,19 4,9 6,19 6,31l0 30c0,12 -2,22 -6,30 -3,8 -9,15 -16,19 -7,4 -16,7 -26,7 -9,0 -16,-2 -22,-7 -6,-3 -10,-7 -13,-13l0 18 -27 0 0 -194zm27 105l0 38c0,6 1,11 3,15 3,4 6,8 10,10 4,2 9,3 14,3 9,0 16,-3 21,-8 5,-6 8,-13 8,-23l0 -30c0,-10 -3,-18 -8,-24 -5,-5 -12,-8 -21,-8 -5,0 -10,1 -14,3 -4,2 -7,5 -10,9 -2,5 -3,10 -3,15z"/>
		<g>
			<path stroke="white" stroke-width="7.99965" fill="none" fill-rule="nonzero" d="M415 130l27 0 0 194 -27 0 0 -18c-3,5 -7,9 -12,13 -6,5 -14,7 -23,7 -10,0 -19,-2 -26,-7 -7,-4 -13,-10 -16,-19 -4,-8 -6,-18 -6,-30l0 -31c0,-12 2,-22 6,-30 3,-9 8,-15 15,-19 7,-5 16,-7 26,-7 8,0 15,2 22,6 5,4 10,8 14,14l0 -73zm0 143l0 -37c0,-6 -1,-11 -4,-15 -2,-5 -5,-8 -9,-10 -4,-2 -9,-3 -15,-3 -9,0 -15,3 -20,8 -5,6 -8,14 -8,24l0 30c0,10 3,18 8,23 5,6 11,8 20,8 6,0 11,-1 15,-3 4,-2 7,-6 9,-10 3,-4 4,-9 4,-15z"/>
			<path id="1" fill="black" fill-rule="nonzero" d="M415 130l27 0 0 194 -27 0 0 -18c-3,5 -7,9 -12,13 -6,5 -14,7 -23,7 -10,0 -19,-2 -26,-7 -7,-4 -13,-10 -16,-19 -4,-8 -6,-18 -6,-30l0 -31c0,-12 2,-22 6,-30 3,-9 8,-15 15,-19 7,-5 16,-7 26,-7 8,0 15,2 22,6 5,4 10,8 14,14l0 -73zm0 143l0 -37c0,-6 -1,-11 -4,-15 -2,-5 -5,-8 -9,-10 -4,-2 -9,-3 -15,-3 -9,0 -15,3 -20,8 -5,6 -8,14 -8,24l0 30c0,10 3,18 8,23 5,6 11,8 20,8 6,0 11,-1 15,-3 4,-2 7,-6 9,-10 3,-4 4,-9 4,-15z"/>
		</g>
	</g>
</svg>